<svg width="33" height="35" viewBox="0 0 33 35" fill="none" xmlns="http://www.w3.org/2000/svg">
<path d="M28.4607 20.9112C27.3078 21.9679 25.5928 21.7987 24.3563 20.7819C23.9992 20.4819 23.5645 20.3061 23.111 20.2783C19.0547 20.2428 14.9972 20.2428 10.9385 20.2783C10.4329 20.3059 9.94603 20.4916 9.5384 20.8124C8.23789 21.8405 6.53709 21.9527 5.36646 20.8124C4.65483 20.132 3.96455 20.2289 3.12305 20.3353C4.06952 24.4233 4.99286 28.4257 5.94288 32.432C6.25422 33.7623 6.79328 34.2014 8.09379 34.2033C14.0157 34.2121 19.9389 34.2121 25.8632 34.2033C27.1957 34.2033 27.7223 33.7243 28.0461 32.3427C28.5105 30.3529 28.9801 28.363 29.4391 26.3713C29.8981 24.3796 30.3394 22.3955 30.8073 20.3353C29.8323 20.1738 29.1545 20.2764 28.4607 20.9112ZM10.8158 30.0336C10.8015 30.9648 10.3728 31.4894 9.65582 31.5103C8.90505 31.5331 8.42292 30.9838 8.41046 30.0184C8.39623 27.8645 8.39623 25.7163 8.41046 23.5738C8.41046 22.6235 8.84278 22.1237 9.5722 22.1047C10.3461 22.0838 10.7944 22.6026 10.8176 23.589C10.8353 24.6628 10.8176 25.7365 10.8176 26.8198C10.8193 27.8822 10.8336 28.9579 10.8158 30.0317V30.0336ZM15.7456 30.0222C15.7278 30.9724 15.235 31.5312 14.4807 31.5103C13.769 31.4894 13.2976 30.9401 13.2905 30.0374C13.2703 27.8835 13.2703 25.7327 13.2905 23.5852C13.2905 22.6349 13.7993 22.0819 14.5572 22.1009C15.2688 22.1199 15.7296 22.671 15.7456 23.57C15.7652 24.6761 15.7456 25.7841 15.7456 26.8901C15.7492 27.9316 15.7634 28.9845 15.7456 30.0203V30.0222ZM20.622 30.0089C20.6042 30.9762 20.1328 31.5293 19.3909 31.5141C18.649 31.4989 18.2292 30.9648 18.2238 30.0431C18.2108 27.8892 18.2108 25.7416 18.2238 23.6004C18.2238 22.614 18.6828 22.08 19.4479 22.1009C20.1719 22.1161 20.6078 22.633 20.6238 23.5643C20.6434 24.6685 20.6238 25.7746 20.6238 26.8806C20.6256 27.9221 20.6398 28.9636 20.622 30.007V30.0089ZM25.5376 30.0754C25.5216 30.9648 25.0395 31.5084 24.3225 31.5122C23.6056 31.516 23.0967 30.961 23.0878 30.0792C23.0653 27.8974 23.0653 25.715 23.0878 23.532C23.0985 22.633 23.5984 22.1028 24.319 22.1028C25.0768 22.1028 25.5287 22.6501 25.5412 23.6232C25.5536 24.6989 25.5412 25.7727 25.5412 26.854C25.5412 27.9354 25.559 28.9978 25.5376 30.0735V30.0754Z" fill="#F05D61"/>
<path d="M6.43605 15.2781C6.24569 15.835 6.03932 16.3861 5.86675 16.9506C5.52161 18.0776 5.9308 19.1152 6.84346 19.4668C7.78815 19.8298 8.65812 19.3471 9.09399 18.2163C9.88568 16.1638 9.88568 16.1638 11.9227 16.1638C15.6588 16.1638 19.3948 16.1904 23.1309 16.1428C23.9244 16.1314 24.3264 16.3937 24.5008 17.2014C24.6057 17.6294 24.7518 18.0447 24.9367 18.4405C25.3565 19.4117 26.2692 19.8165 27.1481 19.4478C27.5499 19.2683 27.8746 18.935 28.0586 18.5132C28.2425 18.0913 28.2724 17.6114 28.1426 17.1672C27.9646 16.5134 27.7138 15.8768 27.4683 15.1489C27.6462 15.204 27.7476 15.2002 27.7921 15.2515C28.6816 16.2835 29.8291 16.179 30.9802 16.1657C32.1971 16.1523 32.971 16.8764 32.9816 17.9445C32.9923 19.0126 32.1793 19.7728 30.9321 19.7918C30.6066 19.7918 30.2792 19.8051 29.9537 19.7918C29.2883 19.7538 28.7332 19.8716 28.1746 20.3943C27.1979 21.316 25.8049 21.1887 24.7321 20.3448C24.3485 20.034 23.8873 19.8515 23.4067 19.8203C19.0776 19.7823 14.7485 19.7823 10.4194 19.8203C9.99573 19.8443 9.58935 20.0076 9.25589 20.2878C8.7404 20.7495 8.09019 21.0045 7.4175 21.0086C6.74482 21.0128 6.09188 20.7659 5.57142 20.3106C5.20078 20.0388 4.77297 19.869 4.32607 19.8165C3.74253 19.731 3.13942 19.8279 2.54699 19.7671C2.11167 19.7464 1.70181 19.5421 1.40732 19.199C1.11282 18.8559 0.957735 18.402 0.976068 17.9369C0.988522 16.9639 1.63433 16.2664 2.60926 16.1733C2.63888 16.1714 2.66859 16.1714 2.69821 16.1733C3.96669 16.1181 5.3437 16.5248 6.26882 15.0063L6.43605 15.2781Z" fill="#F05D61"/>
<path d="M27.769 17.9198C27.4879 18.2106 27.1944 18.7104 26.7781 18.8947C26.191 19.1551 25.6626 18.8092 25.4207 18.1764C25.031 17.1577 24.693 16.1143 24.3337 15.0823C24.017 14.1701 23.6967 13.2579 23.3818 12.3437C23.1221 11.6038 22.8659 10.8626 22.6133 10.1201C22.5291 9.88829 22.4781 9.64418 22.4621 9.39606C22.553 8.9638 22.5983 8.52204 22.5973 8.07901C22.5973 6.48221 22.0035 4.9508 20.9465 3.82168C19.8895 2.69257 18.456 2.05824 16.9612 2.05824C15.4664 2.05824 14.0328 2.69257 12.9758 3.82168C11.9189 4.9508 11.3251 6.48221 11.3251 8.07901C11.3252 8.30823 11.3371 8.53726 11.3606 8.76509C11.3888 9.02772 11.4334 9.28804 11.4941 9.5443C11.481 9.61465 11.4632 9.68388 11.4407 9.75145C11.1466 10.6219 10.8501 11.4917 10.5512 12.3608C9.88046 14.3069 9.19195 16.2474 8.49989 18.184C8.22948 18.9442 7.62637 19.1342 6.96633 18.851C6.27071 18.5413 6.14796 17.8704 6.37924 17.171C6.85959 15.7114 7.38619 14.2708 7.89145 12.8208C8.32554 11.5759 8.70982 10.3102 9.20974 9.09958C9.2653 8.96845 9.33776 8.84627 9.42501 8.73659C9.409 8.51993 9.40011 8.29947 9.40011 8.07711C9.40011 7.01641 9.59568 5.9661 9.97566 4.98614C10.3556 4.00618 10.9126 3.11576 11.6147 2.36573C12.3168 1.6157 13.1503 1.02075 14.0677 0.614834C14.985 0.208921 15.9682 0 16.9612 0C17.9541 0 18.9373 0.208921 19.8547 0.614834C20.772 1.02075 21.6055 1.6157 22.3076 2.36573C23.0098 3.11576 23.5667 4.00618 23.9467 4.98614C24.3267 5.9661 24.5222 7.01641 24.5222 8.07711C24.5222 8.26716 24.5222 8.43821 24.5044 8.61686C24.6348 8.80825 24.7385 9.01888 24.8122 9.24212C25.7101 11.8103 26.6038 14.3785 27.4933 16.9467C27.5716 17.1843 27.6285 17.4276 27.769 17.9198Z" fill="#F05D61"/>
<path d="M18.2226 8.47049H20.1564V11.0932H18.251V13.2179H15.8048V11.1369H13.8745V8.54651H15.755V6.42175H18.2226V8.47049Z" fill="#F05D61"/>
</svg>
