<svg width="735.48" height="90.242" viewBox="0 0 735.48 90.242" xmlns="http://www.w3.org/2000/svg"><g id="svgGroup" stroke-linecap="round" fill-rule="evenodd" font-size="9pt" stroke="#f05d61" stroke-width="0.25mm" fill="#f05d61" style="stroke:#f05d61;stroke-width:0.25mm;fill:#f05d61"><path d="M 36.96 88.8 L 22.8 88.8 L 0 7.56 L 11.28 3.96 L 30.24 76.68 L 48.12 13.56 L 62.4 13.56 L 80.16 76.68 L 99 4.32 L 109.56 7.56 L 86.88 88.8 L 72.72 88.8 L 54.96 25.68 L 36.96 88.8 Z M 131.76 88.8 L 120.96 88.8 L 120.96 0 L 131.76 0 L 131.76 36.36 Q 135.12 31.44 140.28 28.2 A 21.086 21.086 0 0 1 148.83 25.189 A 27.114 27.114 0 0 1 152.4 24.96 A 27.87 27.87 0 0 1 158.479 25.581 Q 164.591 26.947 168.18 31.32 Q 173.13 37.351 173.386 47.05 A 40.517 40.517 0 0 1 173.4 48.12 L 173.4 88.8 L 162.6 88.8 L 162.6 49.32 A 23.549 23.549 0 0 0 162.197 44.831 Q 161.681 42.174 160.503 40.076 A 13.179 13.179 0 0 0 159.48 38.52 A 10.104 10.104 0 0 0 152.091 34.504 A 14.375 14.375 0 0 0 150.72 34.44 A 15.875 15.875 0 0 0 142.664 36.68 A 21.103 21.103 0 0 0 140.22 38.34 Q 135.24 42.24 131.76 47.52 L 131.76 88.8 Z M 532.56 85.8 L 522.12 90 L 512.76 66 L 473.88 66 L 464.52 89.76 L 454.8 85.8 L 487.68 4.8 L 500.16 4.8 L 532.56 85.8 Z M 365.64 83.76 L 370.2 74.76 A 22.268 22.268 0 0 0 373.972 77.311 Q 375.824 78.316 378.025 79.127 A 35.786 35.786 0 0 0 378.06 79.14 Q 382.8 80.88 388.2 80.88 Q 394.92 80.88 398.34 78.66 A 8.939 8.939 0 0 0 400.18 77.109 A 6.063 6.063 0 0 0 401.76 72.96 A 8.547 8.547 0 0 0 401.383 70.383 A 7.454 7.454 0 0 0 400.5 68.52 Q 399.293 66.681 396.16 64.897 A 26.769 26.769 0 0 0 395.88 64.74 A 34.155 34.155 0 0 0 393.487 63.548 Q 390.532 62.205 386.16 60.72 A 55.94 55.94 0 0 1 380.883 58.629 Q 375.963 56.362 373.02 53.58 A 13.589 13.589 0 0 1 369.068 46.384 A 20.153 20.153 0 0 1 368.64 42.12 A 14.544 14.544 0 0 1 373.378 31.302 A 20.955 20.955 0 0 1 374.94 29.94 Q 380.225 25.762 388.93 25.089 A 45.033 45.033 0 0 1 392.4 24.96 A 48.953 48.953 0 0 1 397.735 25.237 Q 400.504 25.541 402.924 26.179 A 30.267 30.267 0 0 1 403.08 26.22 A 46.524 46.524 0 0 1 408.041 27.846 A 37.333 37.333 0 0 1 411.48 29.4 L 408.48 38.28 A 29.434 29.434 0 0 0 404.078 36.161 A 36.23 36.23 0 0 0 401.1 35.16 A 30.029 30.029 0 0 0 395.72 34.143 A 38.204 38.204 0 0 0 391.92 33.96 A 24.758 24.758 0 0 0 388.396 34.194 Q 386.602 34.453 385.149 34.997 A 10.211 10.211 0 0 0 382.44 36.48 A 11.186 11.186 0 0 0 380.811 38.008 Q 379.968 38.99 379.566 40.038 A 5.435 5.435 0 0 0 379.2 42 A 5.905 5.905 0 0 0 380.994 46.262 A 8.499 8.499 0 0 0 381.72 46.92 Q 384.24 48.96 391.56 51.36 A 81.304 81.304 0 0 1 397.634 53.638 Q 403.41 56.092 406.72 58.835 A 17.936 17.936 0 0 1 408.12 60.12 Q 412.8 64.92 412.8 72.12 A 16.648 16.648 0 0 1 411.525 78.739 Q 409.966 82.38 406.499 85.026 A 19.942 19.942 0 0 1 406.02 85.38 Q 399.24 90.24 387.84 90.24 A 47.988 47.988 0 0 1 380.806 89.747 A 37.138 37.138 0 0 1 375.06 88.44 A 37.06 37.06 0 0 1 370.451 86.658 Q 368.075 85.541 366.177 84.163 A 21.874 21.874 0 0 1 365.64 83.76 Z M 356.28 62.04 L 312.6 62.04 Q 313.68 70.8 318.72 75.72 A 16.973 16.973 0 0 0 327.87 80.293 A 24.025 24.025 0 0 0 332.04 80.64 Q 337.44 80.64 341.76 79.5 Q 346.08 78.36 350.04 76.56 L 352.56 85.8 A 48.924 48.924 0 0 1 347.358 87.751 A 62.236 62.236 0 0 1 342.84 88.98 A 46.697 46.697 0 0 1 336.73 89.963 A 62.43 62.43 0 0 1 330.72 90.24 A 33.981 33.981 0 0 1 321.425 89.033 A 25.33 25.33 0 0 1 309.42 81.66 A 28.226 28.226 0 0 1 303.174 70.212 Q 301.56 64.614 301.56 57.6 A 42.43 42.43 0 0 1 302.559 48.214 A 34.608 34.608 0 0 1 305.1 40.86 Q 308.64 33.48 315 29.22 A 25.258 25.258 0 0 1 327.311 25.054 A 31.446 31.446 0 0 1 329.76 24.96 A 34.264 34.264 0 0 1 336.324 25.555 Q 340.337 26.338 343.541 28.153 A 20.656 20.656 0 0 1 344.7 28.86 Q 350.64 32.76 353.64 39.36 A 33.822 33.822 0 0 1 356.551 51.196 A 40.121 40.121 0 0 1 356.64 53.88 A 90.244 90.244 0 0 1 356.291 61.916 A 83.149 83.149 0 0 1 356.28 62.04 Z M 633.6 62.04 L 589.92 62.04 Q 591 70.8 596.04 75.72 A 16.973 16.973 0 0 0 605.19 80.293 A 24.025 24.025 0 0 0 609.36 80.64 Q 614.76 80.64 619.08 79.5 Q 623.4 78.36 627.36 76.56 L 629.88 85.8 A 48.924 48.924 0 0 1 624.678 87.751 A 62.236 62.236 0 0 1 620.16 88.98 A 46.697 46.697 0 0 1 614.05 89.963 A 62.43 62.43 0 0 1 608.04 90.24 A 33.981 33.981 0 0 1 598.745 89.033 A 25.33 25.33 0 0 1 586.74 81.66 A 28.226 28.226 0 0 1 580.494 70.212 Q 578.88 64.614 578.88 57.6 A 42.43 42.43 0 0 1 579.879 48.214 A 34.608 34.608 0 0 1 582.42 40.86 Q 585.96 33.48 592.32 29.22 A 25.258 25.258 0 0 1 604.631 25.054 A 31.446 31.446 0 0 1 607.08 24.96 A 34.264 34.264 0 0 1 613.644 25.555 Q 617.657 26.338 620.861 28.153 A 20.656 20.656 0 0 1 622.02 28.86 Q 627.96 32.76 630.96 39.36 A 33.822 33.822 0 0 1 633.871 51.196 A 40.121 40.121 0 0 1 633.96 53.88 A 90.244 90.244 0 0 1 633.611 61.916 A 83.149 83.149 0 0 1 633.6 62.04 Z M 701.04 67.32 L 701.04 38.04 L 690.24 38.04 L 690.24 28.68 L 701.28 28.68 L 703.56 9 L 711.84 9 L 711.84 28.68 L 729.12 28.68 L 729.12 38.04 L 711.84 38.04 L 711.84 68.16 A 25.87 25.87 0 0 0 712.041 71.515 Q 712.522 75.175 714.148 77.197 A 6.668 6.668 0 0 0 714.78 77.88 Q 717.72 80.64 721.8 80.64 Q 724.8 80.64 727.5 79.68 Q 730.2 78.72 732.48 77.4 L 735.48 86.04 Q 733.849 87.019 731.441 87.97 A 52.038 52.038 0 0 1 729 88.86 Q 724.92 90.24 720.48 90.24 A 21.992 21.992 0 0 1 714.262 89.405 A 16.721 16.721 0 0 1 706.26 84.3 A 19.339 19.339 0 0 1 702.386 77.217 Q 701.471 74.301 701.178 70.777 A 41.733 41.733 0 0 1 701.04 67.32 Z M 234.72 31.44 L 234.72 26.4 L 244.56 26.4 L 244.56 73.68 A 14.58 14.58 0 0 0 244.682 75.643 Q 245.08 78.563 246.78 79.62 Q 249 81 251.64 81 L 249.36 89.4 Q 237.84 89.4 235.44 80.04 A 25.569 25.569 0 0 1 231.709 84.151 A 34.198 34.198 0 0 1 227.94 87.06 Q 223.486 90.048 216.754 90.228 A 32.645 32.645 0 0 1 215.88 90.24 Q 208.08 90.24 201.72 86.28 A 27.536 27.536 0 0 1 192.824 77.248 A 33.507 33.507 0 0 1 191.58 75.06 A 32.673 32.673 0 0 1 188.424 65.529 A 43.973 43.973 0 0 1 187.8 57.96 A 39.77 39.77 0 0 1 188.996 48.038 A 33.562 33.562 0 0 1 191.58 41.16 Q 195.36 33.72 202.02 29.34 A 26.72 26.72 0 0 1 202.124 29.272 Q 207.92 25.499 215.207 25.027 A 32.711 32.711 0 0 1 217.32 24.96 A 27.101 27.101 0 0 1 223.072 25.549 A 22.444 22.444 0 0 1 227.1 26.82 A 31.202 31.202 0 0 1 232.244 29.572 A 26.523 26.523 0 0 1 234.72 31.44 Z M 265.44 69.24 L 265.44 0 L 276.24 0 L 276.24 68.16 Q 276.24 72.049 277.212 74.727 A 9.568 9.568 0 0 0 278.94 77.76 A 8.836 8.836 0 0 0 284.44 80.731 A 12.869 12.869 0 0 0 286.44 80.88 Q 288.72 80.88 290.94 80.34 A 26.63 26.63 0 0 0 292.696 79.852 Q 293.538 79.585 294.255 79.284 A 14.331 14.331 0 0 0 294.72 79.08 L 297.36 87.84 Q 295.2 88.8 292.02 89.52 A 28.58 28.58 0 0 1 288.234 90.102 A 36.616 36.616 0 0 1 285 90.24 A 25.035 25.035 0 0 1 279.132 89.576 A 21.053 21.053 0 0 1 275.04 88.14 A 15.22 15.22 0 0 1 268.65 82.421 A 19.027 19.027 0 0 1 268.02 81.36 A 18.906 18.906 0 0 1 266.256 76.737 Q 265.44 73.425 265.44 69.24 Z M 542.76 69.24 L 542.76 0 L 553.56 0 L 553.56 68.16 Q 553.56 72.049 554.532 74.727 A 9.568 9.568 0 0 0 556.26 77.76 A 8.836 8.836 0 0 0 561.76 80.731 A 12.869 12.869 0 0 0 563.76 80.88 Q 566.04 80.88 568.26 80.34 A 26.63 26.63 0 0 0 570.016 79.852 Q 570.858 79.585 571.575 79.284 A 14.331 14.331 0 0 0 572.04 79.08 L 574.68 87.84 Q 572.52 88.8 569.34 89.52 A 28.58 28.58 0 0 1 565.554 90.102 A 36.616 36.616 0 0 1 562.32 90.24 A 25.035 25.035 0 0 1 556.452 89.576 A 21.053 21.053 0 0 1 552.36 88.14 A 15.22 15.22 0 0 1 545.97 82.421 A 19.027 19.027 0 0 1 545.34 81.36 A 18.906 18.906 0 0 1 543.576 76.737 Q 542.76 73.425 542.76 69.24 Z M 659.16 88.8 L 648.36 88.8 L 648.36 26.4 L 658.8 26.4 L 658.8 39.96 Q 660.36 36 663 32.58 Q 665.64 29.16 669.6 27.06 A 17.78 17.78 0 0 1 675.215 25.231 A 23.351 23.351 0 0 1 678.84 24.96 Q 680.64 24.96 682.44 25.14 A 22.767 22.767 0 0 1 683.706 25.3 Q 684.69 25.455 685.44 25.68 L 682.2 36.84 A 11.715 11.715 0 0 0 679.625 36.105 Q 678.434 35.901 677.082 35.882 A 19.912 19.912 0 0 0 676.8 35.88 A 15.549 15.549 0 0 0 668.844 38.095 A 18.731 18.731 0 0 0 668.34 38.4 A 16.082 16.082 0 0 0 664.173 42.236 Q 662.849 43.945 661.774 46.131 A 27.422 27.422 0 0 0 661.74 46.2 A 23.185 23.185 0 0 0 659.976 51.371 Q 659.421 53.872 659.244 56.793 A 46.908 46.908 0 0 0 659.16 59.64 L 659.16 88.8 Z M 233.76 72.84 L 233.76 39.36 Q 230.52 37.08 226.62 35.7 Q 222.72 34.32 218.4 34.32 A 19.109 19.109 0 0 0 212.435 35.225 A 16.828 16.828 0 0 0 208.26 37.26 A 19.561 19.561 0 0 0 202.237 43.769 A 23.955 23.955 0 0 0 201.36 45.42 A 24.796 24.796 0 0 0 199.256 52.232 A 33.214 33.214 0 0 0 198.84 57.6 Q 198.84 64.32 201.36 69.54 A 21.122 21.122 0 0 0 205.087 74.995 A 18.836 18.836 0 0 0 208.32 77.7 Q 212.76 80.64 218.28 80.64 Q 222.84 80.64 226.92 78.42 A 23.34 23.34 0 0 0 232.584 74.158 A 21.685 21.685 0 0 0 233.76 72.84 Z M 493.32 16.08 L 477.48 56.4 L 509.04 56.4 L 493.32 16.08 Z M 312.48 53.28 L 346.68 53.28 A 29.226 29.226 0 0 0 346.195 47.777 Q 345.193 42.555 342.12 39.24 A 14.986 14.986 0 0 0 333.767 34.709 A 22.074 22.074 0 0 0 329.52 34.32 A 16.296 16.296 0 0 0 323.386 35.442 A 15.029 15.029 0 0 0 318 39.18 A 18.198 18.198 0 0 0 314.471 44.807 Q 313.459 47.279 312.903 50.305 A 38.425 38.425 0 0 0 312.48 53.28 Z M 589.8 53.28 L 624 53.28 A 29.226 29.226 0 0 0 623.515 47.777 Q 622.513 42.555 619.44 39.24 A 14.986 14.986 0 0 0 611.087 34.709 A 22.074 22.074 0 0 0 606.84 34.32 A 16.296 16.296 0 0 0 600.706 35.442 A 15.029 15.029 0 0 0 595.32 39.18 A 18.198 18.198 0 0 0 591.791 44.807 Q 590.779 47.279 590.223 50.305 A 38.425 38.425 0 0 0 589.8 53.28 Z" vector-effect="non-scaling-stroke"/></g></svg>