<svg width="22" height="16" viewBox="0 0 22 16" fill="none" xmlns="http://www.w3.org/2000/svg">
<path d="M14.6243 7.56342L20.0293 2.49585V12.5731L14.6243 7.56342ZM7.65944 8.4216L9.5575 10.1996C9.85539 10.4727 10.2438 10.6377 10.6682 10.6377H10.6832H10.6823H10.6946C11.1199 10.6377 11.5083 10.4718 11.8097 10.1968L11.807 10.1987L13.7051 8.42065L19.4748 13.768H1.89235L7.65944 8.4216ZM1.88444 1.29439H19.4854L11.0311 9.21815C10.9361 9.29929 10.8184 9.34339 10.6972 9.34332H10.6849H10.6858H10.6735C10.5519 9.34349 10.4338 9.29901 10.3387 9.2172L10.3396 9.21815L1.88444 1.29439ZM1.33875 2.4949L6.74293 7.56247L1.33875 12.5693V2.4949ZM20.3193 0.180172C20.1084 0.0663791 19.8606 0 19.5979 0H1.77284C1.51815 6.56536e-05 1.26696 0.0640184 1.0391 0.18681L1.04877 0.182068C0.775986 0.327259 0.546264 0.551874 0.38555 0.83054C0.224836 1.10921 0.139535 1.43082 0.139282 1.75904L0.139282 13.3014C0.139747 13.7685 0.311911 14.2164 0.617996 14.5467C0.924082 14.877 1.33909 15.0628 1.77196 15.0633H19.5952C20.0281 15.0628 20.4431 14.877 20.7492 14.5467C21.0553 14.2164 21.2274 13.7685 21.2279 13.3014V1.75904C21.2279 1.06965 20.8597 0.47224 20.3237 0.184913L20.314 0.180172H20.3193Z" fill="#F05D61"/>
</svg>
